<?xml version="1.0" encoding="utf-8"?>
<!-- Generator: Adobe Illustrator 16.0.0, SVG Export Plug-In . SVG Version: 6.00 Build 0)  -->
<!DOCTYPE svg PUBLIC "-//W3C//DTD SVG 1.1//EN" "http://www.w3.org/Graphics/SVG/1.1/DTD/svg11.dtd">
<svg version="1.1" id="レイヤー_1" xmlns="http://www.w3.org/2000/svg" xmlns:xlink="http://www.w3.org/1999/xlink" x="0px"
	 y="0px" width="330px" height="330px" viewBox="0 0 330 330" enable-background="new 0 0 330 330" xml:space="preserve">
<g>
	<circle fill="#E27868" cx="163" cy="163" r="163"/>
</g>
<path fill="#FFFFFF" d="M210.106,157.071c-0.976,0.511-1.933,1.074-2.863,1.678c-4.747,2.418-9.574,3.046-15.03,2.691
	c0.437-0.533,0.853-1.089,1.225-1.69c1.098-1.771,0.391-4.193-1.37-5.224c-1.83-1.073-4.13-0.396-5.224,1.37
	c-0.131,0.217-0.268,0.431-0.41,0.641c-0.038,0.056-0.068,0.102-0.094,0.143c-0.043,0.042-0.107,0.113-0.208,0.228
	c-0.157,0.174-0.321,0.341-0.491,0.502c-0.082,0.08-0.136,0.135-0.175,0.178c-0.038,0.025-0.08,0.054-0.132,0.091
	c-0.191,0.129-0.389,0.25-0.592,0.364c-0.043,0.026-0.439,0.197-0.582,0.265c-0.537,0.186-1.096,0.313-1.654,0.416
	c-0.945,0.174-1.691,0.79-2.174,1.585c-3.115-0.201-6.234-0.205-9.402,0.27c-1.062,0.159-2.119,0.335-3.177,0.522
	c0.052-0.364,0.101-0.728,0.148-1.092c1.794-0.414,3.491-1.821,4.573-3.05c2.932-3.329-1.189-8.082-4.416-6.22
	c-1.479-3.15-7.156-1.825-7.194,1.993c-0.031,3.089-0.442,6.116-0.882,9.168c-0.036,0.25-0.055,0.499-0.059,0.745
	c-4.368,0.917-8.709,1.862-13.046,2.545c-0.932-0.801-2.249-1.08-3.575-0.866c-0.618,0.1-1.053-0.194-1.683-1.282
	c-0.663-1.145-0.753-2.611-0.611-4.201c0.185-2.077-1.877-3.818-3.819-3.818c-2.221,0-3.634,1.746-3.818,3.818
	c-0.217,2.44,0.2,5.078,1.289,7.332c-5.057-0.079-10.142-0.878-15.293-2.867c-4.602-1.777-6.574,5.609-2.03,7.364
	c1.834,0.708,3.681,1.271,5.536,1.729c-1.312,2.534-2.949,4.74-5.185,6.654c-1.583,1.354-1.386,4.014,0,5.399
	c1.557,1.557,3.821,1.353,5.4,0c3.164-2.707,5.547-6.138,7.216-9.937c0.122-0.277,0.212-0.561,0.286-0.844
	c2.134,0.189,4.274,0.27,6.42,0.234c0.03,0.298,0.064,0.596,0.115,0.902c0.132,0.789,0.495,1.539,0.841,2.252
	c0.908,1.872,3.534,2.36,5.224,1.37c0.854-0.5,1.493-1.327,1.755-2.282c0.268-0.972,0.103-1.852-0.29-2.732
	c-0.002-0.006-0.004-0.011-0.005-0.016c5.597-0.627,11.193-1.753,16.723-2.98c0.805,1.363,1.576,2.751,2.175,4.201
	c0.794,1.922,2.503,3.271,4.697,2.667c1.821-0.501,3.463-2.771,2.667-4.697c-0.556-1.343-1.181-2.638-1.844-3.911
	c0.482-0.109,0.964-0.219,1.445-0.326c7.323-1.635,14.943,0.204,22.276,0.787c1.8,0.143,3.572,0.146,5.316,0.02
	c-0.6,1.542-0.989,3.189-1.092,4.955c-0.285,4.922,7.354,4.895,7.638,0c0.213-3.671,2.979-6.455,6.022-8.508
	c1.117-0.58,2.215-1.223,3.287-1.942C218.039,160.933,214.495,154.772,210.106,157.071z"/>
<path fill="#FFFFFF" d="M228.217,140.269c-0.723-0.336-1.421-0.631-2.189-0.779c0.149-0.673,0.284-1.35,0.381-2.036
	c0.291-2.06-0.471-4.093-2.667-4.697c-1.811-0.498-4.405,0.602-4.697,2.667c-0.509,3.592-1.717,6.743-3.688,9.78
	c-2.691,4.145,3.923,7.968,6.594,3.854c0.461-0.71,0.886-1.44,1.287-2.182c0.342,0,0.683,0.01,1.022,0.029
	c0.269,0.062,0.534,0.137,0.797,0.242c-0.012-0.005-0.022-0.01-0.035-0.015c0.734,0.255,1.466,0.341,2.284,0.116
	c0.954-0.262,1.781-0.901,2.282-1.755C230.563,143.825,230.104,141.147,228.217,140.269z"/>
<path fill="#FFFFFF" d="M260.775,172.119c-1.306-6.567-4.248-12.636-4.701-19.388c-0.05-0.743-0.271-1.373-0.604-1.891
	c-0.015-0.048-0.024-0.094-0.04-0.142c-3.203-9.493-6.674-19.748-13.016-27.643c-2.96-3.686-6.231-7.102-9.284-10.71
	c-3.136-3.707-5.401-7.546-9.488-10.343c-6.163-4.219-14.014-3.67-19.866-8.659c-2.453-2.091-4.724-4.132-7.861-5.109
	c-2.611-0.813-5.342-0.292-7.886,0.651c-5.407-6.507-15.409-6.041-23.307-4.399c-5.349,1.112-15.114,1.039-20.172,5.078
	c-7.696-3.435-16.149-2.297-24.055,0.009c-8.131,2.371-16.27,6.114-23.524,10.479c-8.12,4.886-15.146,11.587-20.714,19.219
	c-5.468,7.493-7.773,15.733-7.879,24.901c-0.099,8.52,1.89,15.925,4.971,23.807c1.262,3.229,2.676,6.723,5.417,8.978
	c3.569,2.937,8.067,3.851,12.529,4.425c4.037,0.521,8.104,0.293,12.097,1.165c0.691,0.151,1.113,0.482,1.204,0.377
	c0.082,0.63,0.124,1.58,0.201,2.323c0.767,7.414,4.667,13.158,10.713,17.352c9.127,6.33,22.637,8.061,33.397,4.629
	c1.999,2.738,4.41,5.112,7.422,6.712c3.073,3.135,5.884,6.349,8.021,10.221c2.34,4.239,3.518,9.027,5.311,13.504
	c3.492,8.715,9.617,14.402,19.461,11.924c2.043-0.515,3.176-2.717,2.666-4.697c-1.025-3.998-1.533-8.051-1.357-12.135
	c4.994,1.251,9.91,2.774,15.067,3.294c6.549,0.658,12.934-1.805,18.7-4.644c8.994-4.427,12.765-12.394,14.143-21.575
	c10.479-1.259,17.987-8.962,21.557-19.001C262.05,184.766,262.017,178.359,260.775,172.119z M239.889,132.757
	c-0.47,0.079-0.901,0.196-1.314,0.331c-0.308-0.597-0.858-1.117-1.701-1.474c-0.261-0.11-0.378-2.404-0.503-3.958
	C237.674,129.245,238.836,130.958,239.889,132.757z M241.173,150.182c0.712-1.808,0.486-3.988,0.297-5.869
	c-0.103-1.014-0.221-2.021-0.288-3.039c-0.019-0.344-0.007-0.688,0.006-1.033c0.824-0.076,1.507-0.362,2.045-0.786
	c0.932,2.174,1.77,4.396,2.557,6.611c-2.104-0.267-4.27,0.925-3.971,3.608c0.371,3.319,0.006,6.038-2.024,8.765
	c-1.87,2.513,0.661,5.393,3.159,5.723c-0.111,0.869-0.418,1.654-1.114,2.119c-1.13,0.754-2.829,0.461-4.285,0.055
	c-0.552-2.49-1.315-4.947-2.366-7.388c-0.068-0.16-0.145-0.306-0.225-0.445C237.649,156.305,239.832,153.588,241.173,150.182z
	 M219.787,108.596c2.606,1.566,4.423,4.318,6.236,6.873c-2.199-1.051-4.557-1.729-6.911-1.86c-0.362-0.02-0.709-0.017-1.049-0.002
	c-0.782-3.9-4.891-6.792-8.294-8.623C213.198,105.969,216.709,106.746,219.787,108.596z M129.962,95.226
	c3.749-0.609,7.954-0.442,11.409,1.232c0.383,0.186,0.761,0.301,1.131,0.364c0.159,0.214,0.34,0.41,0.532,0.593
	c0.063,0.2,0.127,0.399,0.202,0.59c-2.05,1.475-3.762,3.322-5.164,5.424c-2.722-2.677-5.526-5.206-8.63-7.457
	c-0.318-0.23-0.667-0.384-1.03-0.471C128.928,95.403,129.444,95.31,129.962,95.226z M95.222,122.56
	c0.012-1.729,0.604-3.488,1.074-5.134c0.9-3.15,2.346-6.248,2.825-9.503c0.01-0.066,0.012-0.129,0.019-0.194
	c1.917-1.244,3.886-2.387,5.882-3.418c6.472-3.344,13.204-6.357,20.282-8.121c-0.445,0.313-0.824,0.706-1.086,1.153
	c-1.13,1.929-0.312,4.005,1.37,5.225c2.864,2.076,5.386,4.545,7.882,7.04c0.407,0.407,0.84,0.688,1.281,0.87
	c-0.021,0.068-0.04,0.138-0.061,0.207c-5.283-2.708-11.372-2.974-17.108-0.128c-5.298,2.628-8.036,7.773-8.48,13.24
	c-4.105-1.423-8.636-1.596-12.274,0.382c-0.379-0.264-0.838-0.469-1.392-0.587c-0.073-0.016-0.138-0.03-0.195-0.042
	C95.194,123.23,95.22,122.921,95.222,122.56z M83.542,122.178c1.579-2.164,3.353-4.207,5.268-6.126
	c-1.117,3.935-1.841,7.975-0.658,10.906c-1.521,1.358-2.903,2.881-4.396,4.269c-0.61,0.566-1.602,1.393-2.311,1.853
	c-0.057-0.257-0.099-0.519-0.143-0.71c-0.322-1.41-1.186-2.227-2.216-2.56C80.22,127.235,81.69,124.715,83.542,122.178z
	 M99.868,174.306c-1.351-0.099-2.701-0.155-4.039-0.22c1.354-0.723,2.697-1.178,4.145-1.296
	C99.932,173.294,99.896,173.799,99.868,174.306z M101.379,165.152c-3.485-0.276-6.906,0.877-9.903,2.611
	c-2.511,1.452-2.206,4.34-0.659,5.963c-3.139-0.378-6.483-1.245-8.091-3.688c-0.895-1.358-1.602-2.856-2.217-4.403
	c4.362,1.127,9.094,0.415,13.138-1.884c2.588,0.431,5.176,0.862,7.764,1.294C101.399,165.08,101.39,165.116,101.379,165.152z
	 M105.224,157.793c-0.126,0.156-0.242,0.317-0.362,0.476c-0.37-0.282-0.798-0.484-1.28-0.564c-3.055-0.509-6.109-1.018-9.165-1.527
	c-0.846-0.141-1.686-0.067-2.43,0.205c-4.188-1.616-6.596-5.653-8.14-9.757c-1.718-4.564-9.103-2.588-7.364,2.03
	c1.281,3.403,2.957,6.642,5.206,9.318c-0.906-0.327-1.794-0.797-2.651-1.411c-0.583-0.417-1.161-0.629-1.712-0.687
	c-0.716-2.731-1.15-5.396-1.269-8.407c-0.115-2.936,0.002-5.69,0.377-8.325c2.015,1.939,4.929,2.414,8.211,0.87
	c2-0.941,3.745-2.649,5.33-4.156c0.059-0.056,0.115-0.116,0.174-0.173c-0.652,5.28,0.432,11.082,3.012,14.9
	c2.741,4.056,9.361,0.239,6.595-3.854c-2.443-3.615-2.424-8.991-1.326-13.06c1.56-5.783,9.64-2.912,12.64-0.132
	c2.653,2.458,7.665,0.09,6.382-3.715c-1.571-4.662-1.075-9.458,3.329-12.298c4.014-2.589,8.818-1.518,12.392,1.16
	c-0.358,4.311-0.046,8.686,0.845,12.66c0.852,3.797,6.349,3.5,7.364,0c0.696-2.402,1.438-4.62,1.664-7.125
	c0.177-1.974-0.954-3.145-2.396-3.525c0.027-0.827,0.085-1.662,0.17-2.496c0.208-0.534,0.291-1.107,0.215-1.684
	c0.709-4.651,2.41-9.095,5.554-11.821c-0.587,1.016-0.707,2.302,0.034,3.633c1.925,3.461,3.531,7.056,5.091,10.692
	c1.637,3.813,6.876,1.443,7.116-1.927c0.518-7.277,3.865-13.132,10.943-15.666c4.602-1.647,2.619-9.028-2.03-7.364
	c-6.536,2.339-11.058,6.492-13.722,11.927c-0.267-0.506-0.525-1.016-0.804-1.517c-0.674-1.212-1.681-1.777-2.726-1.868
	c0.946-0.067,1.945-0.279,2.99-0.669c3.729-1.393,3.544-8.097-1.015-7.5c-0.144,0.019-0.28,0.049-0.422,0.07
	c1.172-0.316,2.375-0.502,3.171-0.686c3.223-0.744,6.517-1.158,9.781-1.665c5.143-0.799,12.489-2.669,16.563,1.102
	c-4.635,2.481-7.572,7.081-9.48,12.275c-0.008-0.014-0.016-0.027-0.022-0.041c-2.435-4.279-9.034-0.432-6.595,3.854
	c1.779,3.127,3.391,6.112,3.552,9.783c0.059,1.352,0.597,2.31,1.354,2.914c-2.392-0.444-5.418,1.529-4.78,4.72
	c0.632,3.167-0.739,6.625-1.654,9.773c-1.994,0.434-4.052,1.025-6.055,1.785c-0.727-1.592-1.689-3-2.837-4.254
	c0.395-1.903,0.679-3.829,0.735-5.774c0.145-4.963-7.295-4.861-7.637,0c-0.02,0.28-0.077,0.552-0.152,0.82
	c-3.266-0.468-6.27,3.924-3.312,6.462c0.826,0.708,1.673,1.248,2.567,1.737c1.683,1.176,3.083,2.581,3.842,4.557
	c-0.695,0.494-1.369,1.008-1.989,1.567c-0.32-0.256-0.666-0.496-1.071-0.696c-3.053-1.51-6.834-0.99-10.108-0.931
	c-2.957,0.054-5.801,0.592-8.572,1.436c0.162-4.975,0.675-10.045,0.243-14.999c0.283-0.417,0.543-0.842,0.79-1.275
	c0.761-0.997,1.259-2.004,1.471-3.769c0.309-2.584-2.471-4.117-4.728-3.709c-2.388-2.401-6.932-0.372-6.337,3.706
	c0.134,0.916,0.403,1.746,0.717,2.565c1.375,6.281,0.232,12.963,0.165,19.331c-0.004,0.409,0.048,0.781,0.142,1.123
	c-1.851,0.85-3.741,1.792-5.589,2.833c-1.064-2.193-2.601-3.982-4.343-5.654c0.29-1.958,0.34-3.893-0.02-5.936
	c-0.672-3.811-5.44-3.33-7.004-0.594c-0.03-0.024-0.058-0.05-0.088-0.073c-3.791-2.96-8.84,1.693-5.4,5.4
	c0.741,0.798,1.7,1.592,2.735,2.403c1.019,0.998,1.975,2.057,2.865,3.197c0.601,0.769,1.449,1.114,2.333,1.146
	c1.266,1.306,2.233,2.73,2.563,4.332C108.122,154.649,106.544,156.151,105.224,157.793z M148.903,198.945
	c-0.521,0.188-0.954,0.452-1.311,0.765c-7.135,2.821-17.461,2.235-25.113-1.726c2.462-0.484,4.969-0.683,7.582-0.703
	c1.088-0.009,2.005-0.466,2.669-1.155c1.677-1.517,2.188-4.702-0.233-6.47c-1.724-1.26-3.039-2.07-4.98-2.419
	c-0.002-0.001-0.003-0.001-0.005-0.003c0,0.002,0,0.002,0,0.002c-0.321-0.057-0.654-0.105-1.015-0.138
	c-1.671-0.148-3.262,1.274-3.682,2.804c-0.024,0.09-0.041,0.178-0.059,0.266c-2.528,0.374-5.01,0.992-7.425,1.951
	c-1.107-1.486-1.968-3.145-2.492-4.984c-0.633-2.223-0.417-4.553-0.988-6.779c-0.587-2.283-2.383-3.648-4.416-4.505
	c0.117-4.274,0.638-8.509,2.938-12.231c2.696-4.363,8.057-6.894,12.452-9.119c3.36-1.701,6.416-3.417,10.096-4.383
	c3.29-0.864,6.877-0.829,10.259-0.747c0.083,0.002,0.383,0.044,0.682,0.084c0.059,2.121-0.015,4.211,0.202,6.33
	c0.496,4.834,8.081,4.925,7.637,0c-0.815-9.051,11.057-11.47,17.892-12.547c12.145-1.913,22.663,4.132,32.368,10.753
	c4.081,2.784,7.896-3.838,3.854-6.595c-4.91-3.349-9.999-6.425-15.444-8.756c0.007-0.056,0.02-0.109,0.024-0.166
	c0.144-1.471,0.143-3.042,0.215-4.61c4.028,0.039,7.577-1.763,10.886-4.399c1.632-1.299,1.348-4.053,0-5.401
	c-1.594-1.595-3.773-1.295-5.399,0c-1.1,0.876-2.327,1.628-3.643,1.987c0.447-3.694-5.27-5.852-7.138-2.231
	c-1.999,3.876-2.099,8.042-2.372,12.255c-3.587-0.849-7.207-0.982-10.837-0.715c0.892-3.48,1.579-6.938,0.841-10.628
	c-0.18-0.901-0.582-1.562-1.112-2.011c2.027,0.413,4.457-0.833,4.813-3.593c0.855-6.641,2.907-19.417,11.455-20.111
	c2.082-0.169,3.277-1.661,3.587-3.282c1.261-0.265,2.511-0.157,3.842,0.661c2.299,1.413,4.217,3.567,6.412,5.156
	c0.07,0.051,0.144,0.093,0.214,0.142c-2.477-0.793-5.038-1.292-7.436-1.149c-4.893,0.293-4.922,7.932,0,7.637
	c3.126-0.187,6.609,1.248,9.405,2.5c0.946,0.423,6.979,3.474,6.448,4.585c-0.926,1.943-2.004,1.386-3.308,0.295
	c-1.957-1.637-3.793-3.631-6.274-4.47c-2.924-0.989-6.119-0.953-9.152-0.184c-0.188-2.235-0.977-4.432-2.477-6.435
	c-2.916-3.892-9.551-0.091-6.596,3.854c2.062,2.753,1.818,5.038,0,7.856c-2.445,3.79,2.891,7.439,5.998,4.627
	c2.243-2.03,6.979-3.888,9.951-2.407c2.78,1.386,4.499,4.23,7.491,5.407c0.573,0.225,1.153,0.356,1.73,0.434
	c-0.939,2.595-1.746,5.2-2.769,7.213c-1.845,3.636,1.765,6.709,5.225,5.224c2.968-1.274,5.541-2.978,7.9-5.179
	c2.727-2.542,0.306-6.236-2.592-6.447c0.702-1.953,1.684-4.12,4.072-3.773c3.556,0.516,8.125,3.838,9.116,7.326
	c1.066,3.752-0.442,7.667,4.125,9.601c0.287,0.122,0.572,0.208,0.854,0.264c-0.292,1.303-0.352,2.758-0.207,4.302
	c0.208,2.234,0.733,4.295-0.332,6.366c-1.01,1.963-2.801,3.477-4.765,4.701c-0.332-4.504-7.531-4.357-7.625,0.417
	c-0.127,6.478-2.931,14.146-9.925,15.666c-4.812,1.045-2.771,8.406,2.03,7.364c7.317-1.589,11.936-7.521,14.095-14.306
	c0.352-0.06,0.71-0.166,1.073-0.334c0.09-0.042,0.179-0.087,0.27-0.13c0.033,0.096,0.065,0.191,0.107,0.288
	c2.106,4.893,2.502,10.123,2.533,15.383c0.029,4.924,7.666,4.927,7.637,0c-0.008-1.35-0.061-2.68-0.143-3.998
	c2.604,0.234,5.212-0.13,7.492-1.602c-0.271,0.998-0.592,1.986-0.939,2.973c-0.354-0.111-0.714-0.173-1.063-0.173
	c-2.279,0-3.558,1.754-3.819,3.818c-0.423,3.345-1.002,6.686-2.199,9.849c-1.148,3.033-3.028,3.493-5.802,2.129
	c-3.478-1.711-6.62,2.039-5.609,4.762c-0.676,0.436-1.229,1.122-1.527,2.103c-0.019,0.062-0.029,0.121-0.047,0.183
	c-0.047,0.018-0.109,0.047-0.196,0.101c-0.404,0.248-1.47,0.471-2.137,0.541c-2.596,0.271-5.263-0.023-7.84-0.337
	c-1.01-0.123-2.017-0.277-3.022-0.442c1.159-0.255,2.231-1.071,2.786-2.597c0.643-1.766,1.952-3.241,3.543-4.498
	c0.196,0.445,0.415,0.892,0.679,1.337c2.509,4.23,9.112,0.392,6.595-3.854c-0.837-1.411-0.812-1.165,0.667-1.903
	c4.451-2.222,0.557-8.604-3.854-6.595c-3.54,1.613-7.142,3.614-10.03,6.278c-2.193-2.186-5.572-3.397-9.45-3.899
	c-3.403-0.441-6.854-0.383-10.267-0.753c-1.028-0.112-2.245-0.429-3.007-0.783c-0.096-0.697-0.172-1.4-0.195-2.128
	c-0.135-4.16-6.633-5.387-7.501-1.015c-0.155,0.784-0.236,1.519-0.25,2.208c-1.997-0.178-4.031-0.041-6.044,0.312
	c-0.775-2.462-4.604-3.954-6.471-1.66c-3.654,4.492-8.389,3.162-13.593,3.464c-0.69,0.04-1.386,0.304-2,0.708
	c-5.408-1.025-10.581,1.6-16.327,3.502c-4.652,1.539-2.659,8.916,2.03,7.363c5.384-1.782,10.558-5.603,15.896-1.912
	c2.337,1.616,4.71-0.002,5.417-2.195c2.364-0.077,4.622-0.231,6.748-0.805c0.949,0.871,2.25,1.321,3.506,0.84
	c4.248-1.63,9.621-3.377,13.859-0.895c1.417,0.829,2.941,0.605,4.062-0.199c1.565,0.484,3.277,0.783,5.016,0.947
	c3.261,0.307,6.575,0.201,9.809,0.756c2.568,0.439,4.236,0.796,3.798,3.349c-0.329,1.912,0.492,3.347,1.703,4.108
	c-4.051-0.79-8.072-1.791-12.092-2.653c-6.251-1.341-12.287-1.263-18.682-1.107C168.221,194.059,158.375,195.531,148.903,198.945z
	 M184.826,201.395c2.39,0.059,4.644,0.241,6.886,0.531c-2.302,2.768-5.178,5.369-8.792,5.623c-0.846,0.06-1.684-0.026-2.51-0.215
	c1.459-1.027,2.73-2.328,3.863-3.798C184.754,202.913,184.907,202.152,184.826,201.395z M192.239,211.801
	c0.601,0.516,1.427,0.819,2.483,0.755c7.935-0.482,15.203,2.852,22.718,4.967c-4.626,0.526-9.278,0.764-13.871,0.056
	c-4.726-0.729-9.2-2.565-13.698-4.259C190.695,212.879,191.479,212.358,192.239,211.801z M228.326,211.537
	c-10.219,0.198-19.31-5.615-29.378-6.541c0.378-0.486,0.749-0.975,1.108-1.46c0.024-0.033,0.043-0.067,0.067-0.1
	c0.245,0.053,0.481,0.101,0.73,0.155c5.39,1.191,17.12,4.678,24.808,2.699c0.978,1.998,2.604,3.665,4.769,4.789
	c-0.064,0.303-0.14,0.597-0.212,0.893C229.7,211.688,229.07,211.523,228.326,211.537z M175.114,201.646
	c-0.054,0.02-0.114,0.042-0.204,0.074c-0.345,0.121-0.703,0.2-1.059,0.279c-0.557,0.123-1.044,0.39-1.453,0.745
	c-0.323-0.264-0.64-0.526-0.942-0.781c-0.016-0.013-0.031-0.022-0.046-0.035C172.639,201.813,173.875,201.725,175.114,201.646z
	 M174.588,228.957c-2.442-7.2-6.125-13.057-11.081-18.527c-0.113-0.987-0.717-1.899-1.988-2.444c-0.288-0.123-0.554-0.264-0.826-0.4
	c-0.264-0.186-0.534-0.331-0.809-0.435c-1.254-0.729-2.334-1.608-3.302-2.621c2.999-0.814,6.014-1.43,9.051-1.896
	c-1.102,1.348-1.317,3.272,0.423,4.731c2.2,1.845,4.555,3.658,7.085,5.073c-1.351,1.057-2.101,2.901-1.063,4.846
	c2.403,4.503,6.393,8.915,11.057,11.927c-0.473,4.445-0.362,8.812,0.348,13.183C178.12,241.354,176.332,234.095,174.588,228.957z
	 M220.341,224.811c-4.952,2.605-10.438,4.247-16.054,3.472c-3.299-0.455-6.517-1.384-9.739-2.282
	c-0.511-0.363-1.131-0.622-1.862-0.716c-3.56-0.458-7.26-3.258-10.123-6.438c7.105,2.151,13.869,5.64,21.325,6.438
	c5.551,0.595,11.045,0.166,16.53-0.517C220.392,224.781,220.367,224.797,220.341,224.811z M234.945,202.373
	c-0.941-0.012-1.73,0.319-2.353,0.847c-0.489-0.833-0.447-1.915-0.075-3.142c0.081-0.289,0.129-0.566,0.149-0.833
	c4.038,0.803,7.963-0.227,10.717-4.12c1.001-1.417,1.753-2.972,2.335-4.604c1.16,1.386,2.311,2.777,2.855,4.466
	c0.073,0.228,0.164,0.436,0.265,0.633C245.569,199.747,240.859,202.446,234.945,202.373z M253.596,184.832
	c-0.172,0.916-0.39,1.818-0.65,2.703c-0.49-0.641-1.006-1.273-1.542-1.912c-0.393-0.443-0.743-0.918-1.051-1.426
	c-0.136-0.202-0.241-0.311-0.327-0.363c0.022-0.06,0.047-0.129,0.072-0.212c0.401-1.331,1.268-2.612,1.888-3.853
	c0.667-1.336,1.195-2.764,1.616-4.243C254.077,178.584,254.189,181.674,253.596,184.832z"/>
</svg>
