<?xml version="1.0" encoding="utf-8"?>
<!-- Generator: Adobe Illustrator 16.0.0, SVG Export Plug-In . SVG Version: 6.00 Build 0)  -->
<!DOCTYPE svg PUBLIC "-//W3C//DTD SVG 1.1//EN" "http://www.w3.org/Graphics/SVG/1.1/DTD/svg11.dtd">
<svg version="1.1" id="レイヤー_1" xmlns="http://www.w3.org/2000/svg" xmlns:xlink="http://www.w3.org/1999/xlink" x="0px"
	 y="0px" width="330px" height="330px" viewBox="0 0 330 330" enable-background="new 0 0 330 330" xml:space="preserve">
<circle fill="#E27868" cx="165" cy="165" r="163"/>
<g>
	<g>
		<path fill="none" stroke="#A0DBA8" stroke-miterlimit="10" d="M811-31"/>
	</g>
</g>
<path fill="#FFFFFF" d="M245.354,220.319c-6.233-1.896-13.869-0.436-16.693,5.163c-2.306,4.568-0.773,9.253,2.961,12.522
	c0.157,1.354,1.151,2.572,3.225,2.931c6.805,1.179,14.386-0.683,17.485-6.46C255.338,228.875,252.191,222.397,245.354,220.319z
	 M244.321,230.996c-0.893,1.664-2.738,2.455-4.735,2.594c-2.072-1.088-3.412-2.629-3.005-4.271c0.423-1.71,2.302-2.462,4.886-1.951
	c1.301,0.256,2.296,0.836,2.938,1.796C244.637,229.507,244.618,230.443,244.321,230.996z"/>
<path fill="#FFFFFF" d="M246.081,102.006c-15.88-13.934-38.385-17.429-58.344-19.256c-19.997-1.83-41.501-2.784-60.932,3.322
	c-20.185,6.344-34.938,22.548-45.094,41.31c-11.177,20.648-17.413,46.524-5.45,68.204c9.897,17.937,33.116,21.069,50.927,21.884
	c24.757,1.136,50.513,0.146,74.811-5.595c4.246,6.451,11.806,9.113,19.521,5.613c9.152-4.149,12.691-14.415,10.67-23.946
	c14.058-8.481,22.379-25.401,26.218-41.451C262.818,133.66,260.543,114.696,246.081,102.006z M248.128,154.07
	c-3.493,12.208-10.957,27.032-22.827,32.258c-2.147,0.945-4.324,3.334-3.286,6.058c2.148,5.636,2.173,11.913-3.168,15.513
	c-3.26,2.197-6.426,1.633-8.489-0.764c0.469-2.478-0.907-5.406-3.415-6.067c-2.135-1.739-5.554-1.031-7.02,1.208
	c-24.361,5.782-50.242,6.542-75.065,5.232c-9.794-0.518-19.998-1.933-28.916-6.438c-9.567-4.832-15.317-14.371-16.653-25.309
	c-2.891-23.673,11.092-50.02,26.88-65.976c15.204-15.367,35.8-18.261,56.054-18.324c15.187-0.048,30.596,0.934,45.513,4.017
	c14.112,2.916,29.441,8.252,38.429,20.759C253.7,126.724,251.457,142.434,248.128,154.07z"/>
<path fill="#FFFFFF" d="M256.774,239.524c-5.812,0-5.812,7.738,0,7.738C262.587,247.263,262.587,239.524,256.774,239.524z"/>
</svg>
