<?xml version="1.0" encoding="utf-8"?>
<!-- Generator: Adobe Illustrator 16.0.0, SVG Export Plug-In . SVG Version: 6.00 Build 0)  -->
<!DOCTYPE svg PUBLIC "-//W3C//DTD SVG 1.1//EN" "http://www.w3.org/Graphics/SVG/1.1/DTD/svg11.dtd">
<svg version="1.1" id="レイヤー_1" xmlns="http://www.w3.org/2000/svg" xmlns:xlink="http://www.w3.org/1999/xlink" x="0px"
	 y="0px" width="330px" height="330px" viewBox="0 0 330 330" enable-background="new 0 0 330 330" xml:space="preserve">
<g>
	<circle fill="#E27868" cx="165" cy="165" r="163"/>
	<path fill="#FFFFFF" d="M239.16,139.94c-2.912-16.812-16.523-28.715-36.025-29.45c-18.204-0.686-35.106,10.33-41.276,25.104
		c-5.99-10.214-13.306-20.712-26.734-21.914c-20.373-1.822-38.498,13.226-43.39,29.677c-5.252,17.659,4.195,35.79,16.407,49.357
		c11.625,12.917,27.071,23.06,42.855,31.868c0.343,0.54,0.855,1.033,1.576,1.436c7.846,4.387,16.067,8.919,21.465,15.769
		c1.696,2.153,4.852,2.664,7.11,0.81c7.767-6.376,11.648-15.563,16.507-23.673c5.809-9.695,13.869-18.397,20.986-27.349
		C230.846,176.219,242.539,159.448,239.16,139.94z M207.172,192.09c-6.235,7.725-12.874,15.349-17.911,23.755
		c-3.52,5.872-6.405,12.486-11.103,17.787c-0.589-0.583-1.193-1.148-1.813-1.704c0.562-1.569,0.114-3.37-1.999-4.416
		c-16.531-8.185-32.721-17.104-46.816-28.37c-13.708-10.955-25.92-25.06-27.908-41.794c-2.059-17.344,10.742-32.702,30.239-35.595
		c16.61-2.465,23.86,18.16,30.14,28.012c2.253,3.536,8.36,1.89,8.438-2.019c0.326-16.499,16.221-29.4,34.694-29.253
		c17.338,0.138,26.878,13.055,27.592,27.166C231.616,163.217,218.111,178.534,207.172,192.09z"/>
	<path fill="#FFFFFF" d="M140.146,96.959l-4.5-3.834c-1.926-1.641-5.145-1.641-7.071,0c-1.926,1.641-1.926,4.384,0,6.024l4.5,3.834
		c1.926,1.642,5.145,1.642,7.071,0C142.072,101.343,142.072,98.601,140.146,96.959z"/>
	<path fill="#FFFFFF" d="M161.144,80.346c-1.814-1.735-5.228-1.57-7.071,0c-1.897,1.616-1.808,3.999-0.269,5.719
		c0.007,0.027,0.015,0.055,0.022,0.087c-0.29-0.227-0.028,0.166,0.034,0.14c0.076,0.324,0.161,0.718,0.169,0.66
		c0.094,0.928,0.079,1.867,0.08,2.797c0.001,2.322,2.273,4.26,5,4.26c2.725,0,5.001-1.938,5-4.26
		C164.106,86.358,163.917,82.999,161.144,80.346z"/>
	<path fill="#FFFFFF" d="M196.924,85.042c-1.42-2.067-4.43-2.612-6.84-1.529c-3.842,1.725-6.973,4.467-10.012,7.057
		c-4.564,3.888,2.506,9.912,7.07,6.024c2.477-2.108,4.881-4.329,7.987-5.724C197.539,89.789,198.256,86.979,196.924,85.042z"/>
</g>
</svg>
