<?xml version="1.0" encoding="utf-8"?>
<!-- Generator: Adobe Illustrator 16.0.0, SVG Export Plug-In . SVG Version: 6.00 Build 0)  -->
<!DOCTYPE svg PUBLIC "-//W3C//DTD SVG 1.1//EN" "http://www.w3.org/Graphics/SVG/1.1/DTD/svg11.dtd">
<svg version="1.1" id="レイヤー_1" xmlns="http://www.w3.org/2000/svg" xmlns:xlink="http://www.w3.org/1999/xlink" x="0px"
	 y="0px" width="960px" height="560px" viewBox="0 0 960 560" enable-background="new 0 0 960 560" xml:space="preserve">
<image overflow="visible" enable-background="new    " width="3993" height="2127" xlink:href="CD4B3319CF2D09BC.jpg"  transform="matrix(0.2404 0 0 0.2404 2.441406e-04 -2.441406e-04)">
</image>
<rect x="-1" y="1" opacity="0.15" enable-background="new    " width="960" height="510"/>
<g>
	<g enable-background="new    ">
		<path fill="#FFFFFF" d="M489.134,270.648c-0.136,0.512-0.276,1.098-0.425,1.758s-0.222,1.287-0.222,1.879
			c0,0.54,0.081,0.997,0.242,1.374c0.161,0.378,0.512,0.566,1.051,0.566c0.728,0,1.597-0.263,2.606-0.788
			c1.011-0.525,2.095-1.226,3.254-2.102c1.158-0.875,2.357-1.886,3.596-3.031c1.239-1.145,2.466-2.33,3.678-3.557
			c1.213-1.226,2.371-2.458,3.477-3.697c1.104-1.239,2.087-2.397,2.949-3.476l1.496,5.375c-1.779,2.371-3.611,4.647-5.496,6.83
			c-1.887,2.182-3.807,4.108-5.76,5.778c-1.953,1.671-3.914,3.005-5.88,4.001c-1.967,0.997-3.92,1.495-5.86,1.495
			c-1.131,0-2.095-0.182-2.889-0.545c-0.795-0.364-1.436-0.862-1.92-1.495s-0.842-1.36-1.07-2.183
			c-0.23-0.821-0.344-1.69-0.344-2.606c0-0.35,0.014-0.849,0.04-1.495c0.026-0.647,0.061-1.313,0.101-2.001
			c0.041-0.687,0.082-1.313,0.121-1.879c0.041-0.566,0.062-0.93,0.062-1.092l-14.347,0.89l-6.668,0.081
			c-1.131,2.451-2.25,4.621-3.354,6.506c-0.485,0.809-0.997,1.604-1.536,2.385c-0.54,0.781-1.078,1.475-1.617,2.081
			c-0.539,0.606-1.078,1.091-1.616,1.455c-0.54,0.363-1.065,0.546-1.576,0.546c-0.809,0-1.469-0.122-1.98-0.364
			c-0.512-0.242-0.916-0.546-1.212-0.909c-0.297-0.363-0.505-0.774-0.626-1.232c-0.121-0.458-0.182-0.89-0.182-1.293
			c0-0.701,0.094-1.395,0.283-2.082c0.188-0.687,0.458-1.34,0.809-1.96l5.334-8.972c0.242-0.377,0.733-1.279,1.475-2.707
			c0.74-1.428,1.697-3.186,2.869-5.274c1.172-2.087,2.526-4.397,4.062-6.931c1.536-2.532,3.199-5.099,4.991-7.698
			c1.792-2.6,3.691-5.126,5.698-7.578c2.007-2.451,4.068-4.627,6.183-6.526c2.115-1.899,4.25-3.421,6.406-4.566
			s4.297-1.718,6.426-1.718c1.993,0,3.953,0.62,5.88,1.859c1.926,1.239,3.765,3.273,5.516,6.102
			c0.189,0.378,0.283,0.701,0.283,0.971c0,0.35-0.094,0.7-0.283,1.051c-0.188,0.35-0.438,0.66-0.747,0.929
			c-0.31,0.27-0.653,0.485-1.03,0.646c-0.378,0.162-0.768,0.243-1.172,0.243c-0.485,0-1.045-0.107-1.678-0.323
			s-1.232-0.674-1.798-1.374c-0.835-0.97-1.704-1.678-2.606-2.122c-0.903-0.444-1.799-0.667-2.688-0.667
			c-1.268,0-2.561,0.357-3.88,1.071c-1.32,0.714-2.647,1.684-3.98,2.909c-1.334,1.227-2.661,2.642-3.981,4.244
			c-1.32,1.603-2.6,3.293-3.839,5.071s-2.438,3.597-3.597,5.456c-1.159,1.859-2.25,3.637-3.273,5.334
			c-1.024,1.698-1.96,3.261-2.809,4.688s-1.596,2.627-2.243,3.597h7.396l12.488-0.93c0.242-0.538,0.565-1.272,0.97-2.202
			c0.403-0.93,0.854-1.974,1.354-3.132s1.044-2.411,1.637-3.759c0.593-1.347,1.192-2.701,1.798-4.062
			c0.607-1.36,1.206-2.708,1.799-4.041c0.592-1.334,1.145-2.566,1.657-3.698c0.35-1.023,0.868-1.751,1.556-2.182
			s1.421-0.647,2.203-0.647c0.404,0,0.808,0.061,1.212,0.183c0.404,0.121,0.774,0.31,1.111,0.565c0.337,0.257,0.612,0.58,0.829,0.97
			c0.215,0.391,0.336,0.855,0.363,1.395c0,0.512-0.223,1.388-0.667,2.627s-1.011,2.694-1.697,4.364
			c-0.687,1.671-1.455,3.482-2.304,5.436c-0.849,1.954-1.684,3.907-2.506,5.86s-1.582,3.825-2.283,5.617
			S489.511,269.302,489.134,270.648z"/>
	</g>
	<g enable-background="new    ">
		<path fill="#FFFFFF" d="M521.148,256.544c0.754-0.592,1.394-1.044,1.919-1.354s0.977-0.539,1.354-0.688
			c0.377-0.147,0.72-0.235,1.03-0.263c0.31-0.026,0.627-0.04,0.949-0.04c0.566,0,0.971,0.209,1.213,0.627s0.363,0.855,0.363,1.312
			c0,0.378-0.066,0.728-0.201,1.051l-9.053,18.873c1.293-0.97,2.781-1.919,4.465-2.849s3.301-1.765,4.85-2.506
			c1.55-0.74,2.883-1.34,4.002-1.799c1.117-0.457,1.758-0.687,1.92-0.687c0.672,0,1.266,0.256,1.777,0.768
			c0.512,0.513,0.768,1.159,0.768,1.94c0,0.7-0.262,1.441-0.787,2.223s-1.449,1.535-2.77,2.263c-1.885,1.051-3.529,1.947-4.93,2.688
			c-1.401,0.741-2.641,1.408-3.718,2c-1.078,0.594-2.034,1.132-2.87,1.617c-0.835,0.484-1.623,0.983-2.363,1.495
			c-0.742,0.512-1.469,1.057-2.183,1.637c-0.714,0.579-1.489,1.259-2.323,2.041c-0.621,1.616-1.232,3.165-1.84,4.647
			c-0.605,1.481-1.158,2.788-1.656,3.92c-0.499,1.132-0.909,2.047-1.232,2.748c-0.324,0.7-0.499,1.077-0.525,1.132
			c-2.183,4.526-4.58,6.789-7.193,6.789c-1.078,0-1.954-0.357-2.627-1.071c-0.674-0.714-1.011-1.677-1.011-2.89
			c0-1.131,0.142-2.256,0.425-3.374s0.781-2.351,1.495-3.698c0.714-1.347,1.657-2.849,2.829-4.506
			c1.172-1.656,2.646-3.604,4.425-5.84l8.083-16.367c-4.041,4.796-7.706,8.461-10.992,10.993c-3.287,2.532-6.359,3.799-9.215,3.799
			c-0.916,0-1.697-0.209-2.344-0.627c-0.646-0.417-0.97-1.111-0.97-2.081c0-1.347,0.323-2.869,0.97-4.566
			c0.377-0.916,0.754-1.758,1.131-2.526c0.377-0.768,0.769-1.535,1.173-2.304c0.403-0.768,0.828-1.596,1.272-2.485
			c0.445-0.889,0.93-1.892,1.455-3.011c0.525-1.117,1.104-2.41,1.738-3.879c0.633-1.469,1.34-3.187,2.121-5.153
			c0.539-1.051,1.239-1.812,2.102-2.283c0.861-0.471,1.697-0.707,2.506-0.707c0.834,0,1.542,0.195,2.121,0.586
			c0.58,0.391,0.869,0.909,0.869,1.556c0,0.323-0.055,0.606-0.162,0.849l-7.395,15.397c-0.378,0.782-0.566,1.401-0.566,1.859
			c0,0.404,0.162,0.606,0.485,0.606c0.296,0,0.673-0.148,1.132-0.445c0.457-0.296,0.889-0.633,1.293-1.01L521.148,256.544z"/>
		<path fill="#FFFFFF" d="M574.994,272.508c-1.186,1.347-2.566,2.66-4.143,3.939c-1.576,1.28-3.199,2.419-4.869,3.415
			c-1.671,0.997-3.314,1.799-4.93,2.404c-1.617,0.606-3.072,0.91-4.365,0.91s-2.344-0.364-3.152-1.092s-1.213-1.966-1.213-3.718
			c0-1.239,0.216-2.681,0.646-4.324c-0.7,1.051-1.575,2.115-2.626,3.192c-1.051,1.078-2.25,2.062-3.597,2.95
			c-1.348,0.89-2.856,1.61-4.526,2.162c-1.671,0.552-3.489,0.829-5.456,0.829c-0.889,0-1.744-0.095-2.566-0.283
			s-1.542-0.513-2.162-0.97c-0.619-0.458-1.117-1.071-1.494-1.839c-0.379-0.768-0.566-1.731-0.566-2.89
			c0-0.026,0.054-0.438,0.162-1.232c0.107-0.795,0.45-2.048,1.029-3.759c0.58-1.711,1.476-3.926,2.688-6.647
			c1.213-2.722,2.924-6.021,5.133-9.901c0.566-1.023,1.219-1.758,1.961-2.202c0.74-0.445,1.541-0.667,2.404-0.667
			c0.377,0,0.768,0.047,1.172,0.142s0.781,0.242,1.131,0.444s0.633,0.458,0.85,0.768c0.215,0.311,0.322,0.667,0.322,1.071
			c0,0.27-0.04,0.525-0.121,0.768c-0.135,0.458-0.424,1.058-0.869,1.798c-0.443,0.742-0.963,1.591-1.555,2.547
			c-0.594,0.956-1.22,1.986-1.88,3.091c-0.66,1.105-1.272,2.25-1.839,3.436c-0.565,1.186-1.051,2.392-1.455,3.617
			s-0.633,2.418-0.687,3.576c0,0.485,0.134,0.93,0.404,1.334c0.269,0.404,0.714,0.605,1.333,0.605c1.752,0,3.422-0.484,5.012-1.454
			c1.59-0.971,3.057-2.176,4.404-3.617s2.566-2.99,3.658-4.647c1.091-1.657,2-3.173,2.728-4.547c0.512-0.915,0.963-1.899,1.354-2.95
			c0.39-1.051,0.814-2.021,1.272-2.909c0.458-0.89,0.983-1.63,1.576-2.223s1.333-0.89,2.223-0.89c0.97,0,1.737,0.311,2.304,0.93
			c0.565,0.62,0.849,1.361,0.849,2.223c0,0.485-0.183,1.152-0.546,2.001s-0.822,1.818-1.374,2.909
			c-0.552,1.092-1.151,2.257-1.798,3.496s-1.247,2.499-1.799,3.778c-0.553,1.28-1.01,2.533-1.374,3.759s-0.546,2.364-0.546,3.415
			c0,0.97,0.593,1.454,1.778,1.454c0.835,0,1.872-0.242,3.112-0.728c1.238-0.484,2.539-1.165,3.899-2.04
			c1.36-0.876,2.722-1.906,4.082-3.092s2.565-2.466,3.616-3.84L574.994,272.508z"/>
	</g>
	<g enable-background="new    ">
		<path fill="#FFFFFF" d="M579.951,280.792c0-1.293,0.289-2.613,0.869-3.961c0.579-1.347,1.313-2.733,2.203-4.162
			c0.889-1.428,1.858-2.876,2.909-4.345c1.051-1.468,2.048-2.97,2.991-4.506c0.269-0.431,0.484-0.842,0.646-1.232
			c0.161-0.391,0.242-0.788,0.242-1.192c0-0.431-0.121-0.788-0.363-1.07c-0.243-0.283-0.594-0.425-1.051-0.425
			c-1.105,0-2.17,0.236-3.193,0.707c-1.023,0.472-2.008,1.092-2.949,1.859c-0.943,0.768-1.84,1.65-2.688,2.646
			c-0.85,0.997-1.645,2.028-2.385,3.092c-0.742,1.064-1.436,2.122-2.082,3.173s-1.238,2.007-1.777,2.869
			c-0.485,0.889-0.93,1.859-1.334,2.91c-0.404,1.05-0.842,2.021-1.313,2.909c-0.472,0.89-1.004,1.637-1.597,2.243
			c-0.592,0.606-1.333,0.909-2.223,0.909c-0.969,0-1.737-0.311-2.303-0.93c-0.566-0.619-0.85-1.36-0.85-2.223
			c0-0.484,0.176-1.239,0.525-2.263c0.351-1.023,0.802-2.216,1.354-3.577c0.552-1.36,1.179-2.809,1.88-4.344
			c0.699-1.536,1.394-3.058,2.08-4.567c0.688-1.508,1.334-2.93,1.94-4.264c0.606-1.333,1.111-2.471,1.515-3.414
			c0.486-1.158,1.125-2.021,1.92-2.587c0.795-0.565,1.583-0.849,2.365-0.849c0.672,0,1.272,0.25,1.798,0.748
			c0.525,0.499,0.788,1.219,0.788,2.162c0,0.7-0.162,1.469-0.485,2.303c0.728-0.673,1.509-1.4,2.345-2.182
			c0.834-0.781,1.744-1.502,2.727-2.162c0.984-0.66,2.082-1.206,3.295-1.637c1.212-0.431,2.572-0.646,4.081-0.646
			c0.754,0,1.468,0.095,2.142,0.282c0.674,0.189,1.273,0.485,1.799,0.89s0.956,0.93,1.293,1.576s0.531,1.428,0.586,2.344
			c0.619-0.619,1.293-1.232,2.021-1.839c0.727-0.606,1.515-1.151,2.363-1.637c0.85-0.485,1.771-0.875,2.769-1.172
			c0.997-0.296,2.102-0.444,3.313-0.444c0.89,0,1.738,0.095,2.547,0.282c0.808,0.189,1.528,0.506,2.162,0.95
			c0.633,0.444,1.131,1.018,1.494,1.718c0.364,0.7,0.547,1.562,0.547,2.586c0,1.616-0.371,3.152-1.111,4.607
			c-0.742,1.455-1.611,2.788-2.607,4.001c-0.323,0.404-0.754,0.916-1.293,1.535c-0.539,0.62-1.064,1.28-1.576,1.98
			c-0.512,0.701-0.957,1.421-1.334,2.162s-0.565,1.435-0.565,2.081c0,0.593,0.182,0.97,0.546,1.132
			c0.363,0.161,0.842,0.242,1.434,0.242c1.133,0,2.357-0.336,3.678-1.01s2.607-1.488,3.859-2.445
			c1.254-0.956,2.426-1.953,3.517-2.99s1.96-1.906,2.606-2.607c0.162-0.188,0.35-0.323,0.566-0.403
			c0.215-0.081,0.43-0.122,0.646-0.122c0.484,0,0.922,0.217,1.312,0.647s0.586,0.997,0.586,1.697c0,0.539-0.161,1.131-0.484,1.778
			c-0.323,0.646-0.876,1.279-1.657,1.899c-1.454,1.4-2.944,2.741-4.466,4.021c-1.521,1.28-3.058,2.411-4.606,3.395
			c-1.55,0.984-3.099,1.772-4.647,2.364c-1.55,0.593-3.092,0.89-4.627,0.89c-1.994,0-3.604-0.472-4.83-1.415
			c-1.227-0.942-1.838-2.438-1.838-4.485c0-1.348,0.255-2.613,0.768-3.799c0.512-1.186,1.145-2.324,1.898-3.415
			s1.549-2.148,2.385-3.173c0.835-1.023,1.562-2.047,2.183-3.071c0.269-0.431,0.485-0.842,0.646-1.232s0.242-0.788,0.242-1.192
			c0-0.431-0.121-0.788-0.363-1.07c-0.243-0.283-0.593-0.425-1.051-0.425c-1.104,0-2.169,0.236-3.192,0.707
			c-1.024,0.472-2.008,1.092-2.951,1.859s-1.838,1.65-2.688,2.646c-0.848,0.997-1.643,2.028-2.384,3.092
			c-0.741,1.064-1.435,2.122-2.081,3.173s-1.24,2.007-1.778,2.869c-0.485,0.889-0.93,1.859-1.333,2.91
			c-0.404,1.05-0.843,2.021-1.314,2.909c-0.471,0.89-1.004,1.637-1.596,2.243c-0.594,0.606-1.334,0.909-2.223,0.909
			c-0.324,0-0.674-0.061-1.051-0.182c-0.378-0.121-0.721-0.29-1.031-0.506c-0.31-0.216-0.565-0.471-0.768-0.768
			C580.094,281.466,579.979,281.142,579.951,280.792z"/>
		<path fill="#FFFFFF" d="M625.457,256.302c0.457-0.754,0.982-1.293,1.576-1.616c0.592-0.323,1.197-0.485,1.818-0.485
			c1.023,0,1.905,0.33,2.646,0.99c0.74,0.66,1.111,1.502,1.111,2.525c-0.027,0.243-0.061,0.485-0.102,0.728
			c-0.039,0.243-0.127,0.485-0.262,0.728c-0.378,0.701-0.688,1.293-0.93,1.778s-0.465,0.937-0.667,1.354
			c-0.202,0.418-0.397,0.829-0.586,1.233c-0.188,0.403-0.418,0.889-0.687,1.454c-0.324,0.674-0.688,1.408-1.092,2.203
			s-0.788,1.61-1.152,2.444c-0.363,0.836-0.673,1.657-0.929,2.466c-0.257,0.808-0.384,1.549-0.384,2.223
			c0,0.728,0.182,1.206,0.545,1.435c0.364,0.229,0.883,0.344,1.557,0.344c0.754,0,1.541-0.162,2.363-0.485s1.65-0.74,2.486-1.253
			c0.834-0.512,1.656-1.098,2.465-1.758s1.569-1.327,2.283-2c0.714-0.674,1.374-1.32,1.98-1.94c0.605-0.619,1.111-1.172,1.516-1.657
			c0.539-0.511,1.077-0.768,1.616-0.768c0.485,0,0.882,0.216,1.192,0.646c0.309,0.432,0.465,0.984,0.465,1.657
			c0,0.62-0.156,1.28-0.465,1.98c-0.311,0.7-0.815,1.36-1.516,1.98c-1.374,1.4-2.775,2.741-4.203,4.021
			c-1.428,1.28-2.889,2.411-4.385,3.395c-1.495,0.984-2.998,1.772-4.506,2.364c-1.51,0.593-3.031,0.89-4.566,0.89
			c-2.183,0-3.9-0.56-5.152-1.678c-1.254-1.117-1.88-2.862-1.88-5.233c0-1.239,0.175-2.451,0.525-3.637s0.769-2.337,1.253-3.456
			c0.484-1.117,0.996-2.195,1.535-3.232s0.997-2.027,1.375-2.971c0.134-0.35,0.369-0.889,0.707-1.616
			c0.336-0.728,0.693-1.469,1.07-2.223C624.514,258.241,624.971,257.299,625.457,256.302z M629.903,247.209
			c0-0.619,0.113-1.259,0.343-1.92c0.229-0.66,0.572-1.259,1.03-1.798c0.459-0.539,1.031-0.983,1.718-1.334
			c0.687-0.35,1.502-0.525,2.445-0.525c1.562,0,2.653,0.303,3.273,0.909c0.619,0.606,0.929,1.368,0.929,2.283
			c0,0.513-0.101,1.078-0.303,1.697c-0.201,0.62-0.505,1.192-0.909,1.718c-0.403,0.525-0.929,0.964-1.575,1.313
			c-0.647,0.351-1.415,0.525-2.305,0.525c-1.67,0-2.842-0.263-3.516-0.788S629.983,248.071,629.903,247.209z"/>
	</g>
	<g enable-background="new    ">
		<path fill="#FFFFFF" d="M697.755,227.729c0.431,1.859,0.862,3.894,1.294,6.103c0.43,2.21,0.854,4.506,1.272,6.891
			c0.417,2.385,0.835,4.809,1.253,7.274c0.418,2.465,0.834,4.89,1.252,7.274c0.418,2.384,0.822,4.688,1.213,6.91
			s0.788,4.277,1.192,6.163c2.721-5.361,5.341-10.439,7.86-15.235s4.869-9.1,7.053-12.912c2.182-3.812,4.162-7.059,5.939-9.739
			c1.779-2.681,3.314-4.601,4.607-5.759c0.566-0.539,1.158-0.916,1.778-1.132s1.226-0.323,1.818-0.323
			c0.862,0,1.597,0.216,2.202,0.646c0.607,0.432,0.91,0.983,0.91,1.657c0,0.404-0.068,0.741-0.202,1.01
			c-0.136,0.27-0.351,0.566-0.647,0.89c-1.104,1.267-2.141,2.432-3.111,3.495c-0.97,1.064-1.92,2.183-2.85,3.354
			c-0.929,1.172-1.858,2.485-2.787,3.94c-0.93,1.455-1.894,3.192-2.891,5.213c-1.212,2.237-2.424,4.533-3.637,6.891
			s-2.385,4.702-3.516,7.032c-1.132,2.33-2.217,4.587-3.254,6.769c-1.037,2.183-1.986,4.197-2.849,6.042
			c-0.862,1.846-1.644,3.489-2.345,4.931c-0.7,1.441-1.279,2.566-1.737,3.374c-0.782,1.671-1.677,2.91-2.688,3.718
			c-1.011,0.809-1.933,1.226-2.769,1.253h-0.282c-0.54-0.027-1.065-0.135-1.576-0.323c-0.513-0.188-0.983-0.472-1.415-0.849
			c-0.431-0.377-0.801-0.854-1.111-1.435c-0.31-0.579-0.519-1.259-0.626-2.041c-0.431-1.697-0.815-3.36-1.151-4.991
			c-0.338-1.629-0.654-3.3-0.95-5.011c-0.297-1.711-0.6-3.502-0.909-5.375c-0.311-1.872-0.641-3.913-0.99-6.122
			s-0.748-4.621-1.191-7.234c-0.445-2.613-0.965-5.51-1.557-8.688c-0.809,2.694-1.792,5.651-2.95,8.87
			c-1.159,3.22-2.438,6.467-3.839,9.74c-1.401,3.273-2.91,6.439-4.526,9.496c-1.616,3.059-3.313,5.773-5.093,8.144
			c-1.777,2.371-3.604,4.271-5.475,5.698c-1.873,1.428-3.753,2.142-5.639,2.142c-0.322,0-0.701-0.074-1.131-0.222
			c-0.432-0.148-0.843-0.364-1.232-0.646c-0.391-0.283-0.722-0.627-0.99-1.031c-0.27-0.403-0.404-0.849-0.404-1.333
			c0-0.377,0.074-0.721,0.223-1.03c0.147-0.31,0.356-0.681,0.626-1.112c0.35-0.565,0.902-1.057,1.657-1.475
			c0.754-0.417,1.623-0.882,2.606-1.395c0.983-0.511,2.054-1.111,3.212-1.798c1.158-0.688,2.317-1.597,3.477-2.729
			c0.646-0.619,1.414-1.73,2.303-3.334c0.89-1.603,1.853-3.502,2.891-5.698c1.036-2.195,2.114-4.606,3.232-7.233
			c1.117-2.627,2.216-5.274,3.293-7.941c1.078-2.667,2.102-5.273,3.072-7.819c0.97-2.547,1.838-4.836,2.606-6.871
			c0.768-2.033,1.394-3.73,1.879-5.092c0.485-1.36,0.781-2.188,0.89-2.485c0.269-0.808,0.707-1.4,1.312-1.778
			c0.607-0.377,1.26-0.579,1.961-0.605c-0.027,0-0.055,0.014-0.081,0.04c0.081,0,0.168-0.006,0.263-0.021
			c0.094-0.013,0.182-0.02,0.263-0.02c0.593,0,1.179,0.289,1.758,0.868C697.102,225.299,697.513,226.302,697.755,227.729z"/>
	</g>
	<g enable-background="new    ">
		<path fill="#FFFFFF" d="M722.653,256.302c0.458-0.754,0.983-1.293,1.576-1.616s1.199-0.485,1.818-0.485
			c1.023,0,1.906,0.33,2.647,0.99s1.111,1.502,1.111,2.525c-0.026,0.243-0.061,0.485-0.101,0.728
			c-0.041,0.243-0.129,0.485-0.264,0.728c-0.377,0.701-0.687,1.293-0.929,1.778c-0.243,0.485-0.465,0.937-0.667,1.354
			c-0.202,0.418-0.398,0.829-0.586,1.233c-0.189,0.403-0.418,0.889-0.688,1.454c-0.322,0.674-0.687,1.408-1.091,2.203
			c-0.403,0.795-0.788,1.61-1.151,2.444c-0.363,0.836-0.674,1.657-0.93,2.466c-0.256,0.808-0.384,1.549-0.384,2.223
			c0,0.728,0.182,1.206,0.546,1.435c0.363,0.229,0.882,0.344,1.555,0.344c0.754,0,1.543-0.162,2.365-0.485
			c0.821-0.323,1.649-0.74,2.484-1.253c0.836-0.512,1.658-1.098,2.466-1.758s1.569-1.327,2.283-2c0.714-0.674,1.374-1.32,1.98-1.94
			c0.606-0.619,1.111-1.172,1.515-1.657c0.539-0.511,1.078-0.768,1.617-0.768c0.484,0,0.883,0.216,1.192,0.646
			c0.31,0.432,0.464,0.984,0.464,1.657c0,0.62-0.154,1.28-0.464,1.98s-0.815,1.36-1.516,1.98c-1.374,1.4-2.775,2.741-4.203,4.021
			c-1.429,1.28-2.89,2.411-4.385,3.395c-1.495,0.984-2.997,1.772-4.506,2.364c-1.509,0.593-3.031,0.89-4.567,0.89
			c-2.182,0-3.899-0.56-5.152-1.678c-1.252-1.117-1.879-2.862-1.879-5.233c0-1.239,0.175-2.451,0.525-3.637
			c0.35-1.186,0.768-2.337,1.253-3.456c0.485-1.117,0.997-2.195,1.536-3.232c0.538-1.037,0.996-2.027,1.373-2.971
			c0.135-0.35,0.371-0.889,0.707-1.616c0.338-0.728,0.693-1.469,1.072-2.223C721.709,258.241,722.168,257.299,722.653,256.302z
			 M727.098,247.209c0-0.619,0.115-1.259,0.344-1.92c0.229-0.66,0.572-1.259,1.031-1.798c0.457-0.539,1.029-0.983,1.717-1.334
			c0.688-0.35,1.502-0.525,2.445-0.525c1.562,0,2.653,0.303,3.273,0.909c0.619,0.606,0.93,1.368,0.93,2.283
			c0,0.513-0.102,1.078-0.303,1.697c-0.203,0.62-0.506,1.192-0.91,1.718s-0.93,0.964-1.576,1.313
			c-0.646,0.351-1.414,0.525-2.303,0.525c-1.672,0-2.844-0.263-3.517-0.788C727.556,248.764,727.179,248.071,727.098,247.209z"/>
	</g>
	<g enable-background="new    ">
		<path fill="#FFFFFF" d="M748.357,259.413c1.644,0.863,3.112,1.847,4.405,2.95c1.293,1.105,2.391,2.271,3.293,3.496
			c0.902,1.227,1.59,2.473,2.062,3.738c0.472,1.267,0.707,2.506,0.707,3.718c0,1.536-0.438,2.917-1.313,4.143
			c-0.875,1.227-2.021,2.263-3.436,3.111c-1.414,0.849-3.03,1.496-4.849,1.94c-1.819,0.444-3.657,0.667-5.517,0.667
			c-1.401,0-2.762-0.155-4.082-0.465c-1.32-0.311-2.525-0.788-3.617-1.435c-1.09-0.647-2.027-1.476-2.809-2.485
			c-0.781-1.011-1.333-2.216-1.656-3.617c-0.054-0.216-0.081-0.391-0.081-0.525c0-0.728,0.257-1.354,0.769-1.88
			c0.511-0.524,1.076-0.787,1.697-0.787c0.295,0,0.626,0.054,0.99,0.161c0.363,0.108,0.639,0.351,0.828,0.728
			c0.35,0.646,0.842,1.227,1.475,1.737c0.633,0.513,1.34,0.95,2.121,1.313c0.781,0.364,1.61,0.646,2.486,0.849
			c0.875,0.202,1.73,0.304,2.566,0.304c0.861,0,1.689-0.081,2.484-0.243c0.795-0.161,1.496-0.417,2.102-0.768
			c0.606-0.35,1.084-0.794,1.436-1.333c0.35-0.539,0.525-1.199,0.525-1.98c0-1.374-0.311-2.641-0.93-3.799
			c-0.62-1.158-1.422-2.229-2.404-3.213c-0.984-0.983-2.102-1.899-3.355-2.748c-1.252-0.849-2.498-1.663-3.737-2.445
			c-0.136-0.081-0.337-0.316-0.606-0.707s-0.404-0.788-0.404-1.192c0-0.323,0.081-0.579,0.242-0.768
			c0.432-0.565,0.93-1.145,1.496-1.738c0.565-0.592,1.172-1.138,1.818-1.637c0.646-0.498,1.347-0.902,2.102-1.212
			c0.754-0.31,1.535-0.465,2.344-0.465c0.592,0,1.145,0.081,1.656,0.242c0.512,0.162,0.943,0.371,1.294,0.627
			c0.35,0.256,0.626,0.539,0.829,0.849c0.201,0.31,0.303,0.6,0.303,0.869c0,0.377-0.096,0.741-0.283,1.091
			c-0.189,0.351-0.438,0.687-0.748,1.01c-0.31,0.324-0.66,0.647-1.051,0.971S748.734,259.117,748.357,259.413z"/>
		<path fill="#FFFFFF" d="M756.578,275.781c0.646-1.374,1.387-2.903,2.223-4.587c0.834-1.684,1.677-3.354,2.525-5.012
			s1.65-3.233,2.404-4.729s1.388-2.768,1.899-3.818l13.337-26.229c0.161-0.35,0.41-0.687,0.747-1.01s0.721-0.613,1.151-0.869
			c0.432-0.256,0.89-0.458,1.375-0.606c0.484-0.147,0.969-0.222,1.455-0.222c1.185,0,2.006,0.222,2.465,0.666
			c0.457,0.445,0.687,0.99,0.687,1.637c0,0.594-0.148,1.22-0.444,1.88c-0.297,0.66-0.633,1.272-1.01,1.839
			c-1.187,2.021-2.324,4.062-3.416,6.122c-1.091,2.062-2.182,4.136-3.273,6.224c-1.091,2.088-2.189,4.162-3.293,6.224
			c-1.105,2.062-2.264,4.102-3.476,6.122c0.754-0.727,1.556-1.48,2.404-2.263c0.849-0.781,1.771-1.495,2.769-2.142
			c0.996-0.646,2.088-1.179,3.273-1.597c1.186-0.417,2.506-0.626,3.961-0.626c0.861,0,1.684,0.08,2.465,0.242
			s1.468,0.425,2.061,0.788s1.064,0.862,1.414,1.495c0.351,0.634,0.525,1.408,0.525,2.324c0,1.212-0.182,2.323-0.545,3.334
			c-0.363,1.01-0.828,1.967-1.395,2.869c-0.565,0.903-1.186,1.765-1.859,2.586c-0.673,0.822-1.312,1.657-1.919,2.506
			s-1.132,1.731-1.576,2.647s-0.722,1.913-0.829,2.99c0,0.055-0.006,0.108-0.02,0.162s-0.02,0.107-0.02,0.161
			c0,0.539,0.182,0.876,0.545,1.011s0.828,0.202,1.395,0.202c0.727,0,1.508-0.142,2.344-0.425c0.834-0.283,1.678-0.66,2.525-1.132
			c0.85-0.471,1.697-1.003,2.547-1.596c0.848-0.593,1.656-1.199,2.424-1.819c0.768-0.619,1.476-1.218,2.122-1.798
			c0.646-0.579,1.198-1.084,1.657-1.516c0.242-0.215,0.498-0.377,0.768-0.484s0.525-0.162,0.768-0.162
			c0.485,0,0.896,0.182,1.232,0.546c0.337,0.363,0.506,0.855,0.506,1.475c0,0.565-0.195,1.213-0.586,1.939
			c-0.391,0.728-1.059,1.455-2.001,2.183c-1.481,1.293-2.99,2.533-4.526,3.718c-1.535,1.187-3.085,2.237-4.646,3.152
			c-1.563,0.916-3.119,1.644-4.668,2.183c-1.55,0.538-3.065,0.809-4.547,0.809c-1.913,0-3.449-0.438-4.607-1.313
			c-1.158-0.876-1.737-2.257-1.737-4.143c0-1.374,0.235-2.674,0.707-3.9c0.472-1.226,1.051-2.41,1.737-3.556
			c0.688-1.146,1.422-2.249,2.203-3.314c0.781-1.063,1.469-2.107,2.061-3.132c0.324-0.458,0.572-0.882,0.748-1.272
			c0.175-0.391,0.263-0.814,0.263-1.273c0-0.404-0.108-0.733-0.323-0.99c-0.216-0.256-0.553-0.384-1.01-0.384
			c-1.59,0-3.059,0.391-4.406,1.172c-1.347,0.782-2.586,1.778-3.717,2.991c-1.132,1.212-2.183,2.539-3.152,3.98
			c-0.971,1.441-1.873,2.822-2.708,4.142c-0.378,0.594-0.762,1.273-1.151,2.041c-0.391,0.769-0.795,1.557-1.213,2.364
			c-0.418,0.809-0.855,1.61-1.313,2.404c-0.458,0.796-0.937,1.503-1.435,2.122c-0.498,0.62-1.023,1.118-1.576,1.495
			s-1.125,0.566-1.717,0.566c-0.943,0-1.672-0.277-2.184-0.829c-0.511-0.552-0.768-1.246-0.768-2.081
			c0-0.619,0.108-1.273,0.324-1.96C755.742,277.619,756.093,276.778,756.578,275.781z"/>
	</g>
	<g enable-background="new    ">
		<path fill="#FFFFFF" d="M799.725,256.302c0.458-0.754,0.983-1.293,1.576-1.616s1.199-0.485,1.818-0.485
			c1.023,0,1.906,0.33,2.647,0.99s1.111,1.502,1.111,2.525c-0.026,0.243-0.061,0.485-0.101,0.728
			c-0.041,0.243-0.129,0.485-0.264,0.728c-0.377,0.701-0.687,1.293-0.929,1.778c-0.243,0.485-0.465,0.937-0.667,1.354
			c-0.202,0.418-0.398,0.829-0.586,1.233c-0.189,0.403-0.418,0.889-0.688,1.454c-0.322,0.674-0.687,1.408-1.091,2.203
			c-0.403,0.795-0.788,1.61-1.151,2.444c-0.363,0.836-0.674,1.657-0.93,2.466c-0.256,0.808-0.384,1.549-0.384,2.223
			c0,0.728,0.182,1.206,0.546,1.435c0.363,0.229,0.882,0.344,1.555,0.344c0.754,0,1.543-0.162,2.365-0.485
			c0.821-0.323,1.649-0.74,2.484-1.253c0.836-0.512,1.658-1.098,2.466-1.758s1.569-1.327,2.283-2c0.714-0.674,1.374-1.32,1.98-1.94
			c0.606-0.619,1.111-1.172,1.515-1.657c0.539-0.511,1.078-0.768,1.617-0.768c0.484,0,0.883,0.216,1.192,0.646
			c0.31,0.432,0.464,0.984,0.464,1.657c0,0.62-0.154,1.28-0.464,1.98s-0.815,1.36-1.516,1.98c-1.374,1.4-2.775,2.741-4.203,4.021
			c-1.429,1.28-2.89,2.411-4.385,3.395c-1.495,0.984-2.997,1.772-4.506,2.364c-1.509,0.593-3.031,0.89-4.567,0.89
			c-2.182,0-3.899-0.56-5.152-1.678c-1.252-1.117-1.879-2.862-1.879-5.233c0-1.239,0.175-2.451,0.525-3.637
			c0.35-1.186,0.768-2.337,1.253-3.456c0.485-1.117,0.997-2.195,1.536-3.232c0.538-1.037,0.996-2.027,1.373-2.971
			c0.135-0.35,0.371-0.889,0.707-1.616c0.338-0.728,0.693-1.469,1.072-2.223C798.781,258.241,799.24,257.299,799.725,256.302z
			 M804.17,247.209c0-0.619,0.115-1.259,0.344-1.92c0.229-0.66,0.572-1.259,1.031-1.798c0.457-0.539,1.029-0.983,1.717-1.334
			c0.688-0.35,1.502-0.525,2.445-0.525c1.562,0,2.653,0.303,3.273,0.909c0.619,0.606,0.93,1.368,0.93,2.283
			c0,0.513-0.102,1.078-0.303,1.697c-0.203,0.62-0.506,1.192-0.91,1.718s-0.93,0.964-1.576,1.313
			c-0.646,0.351-1.414,0.525-2.303,0.525c-1.672,0-2.844-0.263-3.517-0.788C804.628,248.764,804.251,248.071,804.17,247.209z"/>
	</g>
	<g enable-background="new    ">
		<path fill="#FFFFFF" d="M838.239,256.544c0.754-0.592,1.395-1.044,1.92-1.354s0.976-0.539,1.354-0.688
			c0.377-0.147,0.721-0.235,1.03-0.263c0.31-0.026,0.626-0.04,0.95-0.04c0.565,0,0.97,0.209,1.212,0.627
			c0.243,0.418,0.364,0.855,0.364,1.312c0,0.378-0.068,0.728-0.203,1.051l-9.052,18.873c1.293-0.97,2.781-1.919,4.466-2.849
			c1.684-0.93,3.3-1.765,4.85-2.506c1.549-0.74,2.883-1.34,4-1.799c1.118-0.457,1.758-0.687,1.92-0.687
			c0.674,0,1.266,0.256,1.778,0.768c0.512,0.513,0.769,1.159,0.769,1.94c0,0.7-0.264,1.441-0.789,2.223s-1.448,1.535-2.768,2.263
			c-1.887,1.051-3.53,1.947-4.931,2.688c-1.401,0.741-2.641,1.408-3.718,2c-1.078,0.594-2.035,1.132-2.869,1.617
			c-0.836,0.484-1.624,0.983-2.365,1.495c-0.74,0.512-1.469,1.057-2.182,1.637c-0.715,0.579-1.488,1.259-2.324,2.041
			c-0.619,1.616-1.232,3.165-1.838,4.647c-0.606,1.481-1.159,2.788-1.657,3.92c-0.499,1.132-0.909,2.047-1.233,2.748
			c-0.322,0.7-0.498,1.077-0.525,1.132c-2.182,4.526-4.58,6.789-7.193,6.789c-1.077,0-1.953-0.357-2.627-1.071
			c-0.673-0.714-1.01-1.677-1.01-2.89c0-1.131,0.142-2.256,0.424-3.374c0.283-1.118,0.781-2.351,1.496-3.698
			c0.713-1.347,1.656-2.849,2.828-4.506c1.172-1.656,2.647-3.604,4.426-5.84l8.082-16.367c-4.041,4.796-7.705,8.461-10.992,10.993
			s-6.358,3.799-9.214,3.799c-0.916,0-1.697-0.209-2.344-0.627c-0.646-0.417-0.97-1.111-0.97-2.081c0-1.347,0.323-2.869,0.97-4.566
			c0.377-0.916,0.754-1.758,1.132-2.526c0.377-0.768,0.768-1.535,1.172-2.304c0.404-0.768,0.828-1.596,1.273-2.485
			c0.443-0.889,0.929-1.892,1.454-3.011c0.525-1.117,1.104-2.41,1.737-3.879s1.34-3.187,2.122-5.153
			c0.539-1.051,1.239-1.812,2.102-2.283c0.862-0.471,1.697-0.707,2.506-0.707c0.835,0,1.542,0.195,2.122,0.586
			c0.578,0.391,0.868,0.909,0.868,1.556c0,0.323-0.054,0.606-0.161,0.849l-7.396,15.397c-0.377,0.782-0.565,1.401-0.565,1.859
			c0,0.404,0.162,0.606,0.485,0.606c0.296,0,0.673-0.148,1.131-0.445c0.459-0.296,0.89-0.633,1.294-1.01L838.239,256.544z"/>
	</g>
	<g enable-background="new    ">
		<path fill="#FFFFFF" d="M889.041,270.527c-0.485,0.458-1.132,1.091-1.939,1.899c-0.809,0.808-1.732,1.684-2.77,2.627
			s-2.141,1.893-3.313,2.849c-1.172,0.957-2.371,1.825-3.597,2.606c-1.227,0.782-2.432,1.422-3.617,1.92s-2.303,0.748-3.354,0.748
			c-0.943,0-1.752-0.202-2.426-0.606s-1.232-0.93-1.677-1.576s-0.774-1.381-0.989-2.202c-0.217-0.822-0.324-1.664-0.324-2.526
			c0-0.565,0.041-1.124,0.121-1.677c0.081-0.552,0.216-1.071,0.404-1.557c-0.835,1.132-1.785,2.298-2.849,3.496
			c-1.065,1.199-2.21,2.29-3.436,3.273c-1.226,0.984-2.505,1.792-3.839,2.425s-2.688,0.95-4.062,0.95
			c-0.701,0-1.516-0.142-2.444-0.425c-0.93-0.283-1.812-0.748-2.648-1.395c-0.835-0.646-1.535-1.481-2.101-2.505
			c-0.565-1.024-0.849-2.276-0.849-3.759c0-1.104,0.168-2.425,0.505-3.961c0.337-1.535,0.849-3.132,1.536-4.788
			c0.687-1.657,1.562-3.294,2.627-4.91c1.063-1.617,2.323-3.064,3.777-4.345c1.455-1.279,3.112-2.316,4.972-3.112
			c1.858-0.794,3.933-1.191,6.224-1.191c1.186,0,2.223,0.148,3.111,0.444c0.889,0.297,1.643,0.62,2.264,0.97
			c0.7,0.432,1.319,0.903,1.859,1.415c0.457-0.243,0.929-0.472,1.414-0.688c0.404-0.188,0.828-0.356,1.273-0.505
			c0.443-0.148,0.828-0.223,1.15-0.223c1.024,0,1.859,0.283,2.506,0.849c0.646,0.566,0.971,1.186,0.971,1.859
			c0,0.188-0.014,0.337-0.041,0.444c-0.135,0.512-0.344,1.158-0.626,1.939c-0.283,0.782-0.601,1.651-0.95,2.607
			s-0.707,1.953-1.07,2.99c-0.364,1.037-0.694,2.055-0.99,3.051c-0.297,0.997-0.539,1.934-0.728,2.809
			c-0.188,0.876-0.283,1.624-0.283,2.243c0,0.809,0.135,1.476,0.404,2.001c0.269,0.525,0.728,0.788,1.374,0.788
			c0.404,0,0.883-0.128,1.435-0.385c0.552-0.255,1.151-0.599,1.798-1.03c0.647-0.431,1.314-0.923,2.001-1.475
			s1.354-1.111,2.001-1.678c1.508-1.347,3.111-2.882,4.809-4.606c0.431-0.351,0.849-0.525,1.253-0.525
			c0.538,0,0.99,0.263,1.354,0.788c0.363,0.525,0.545,1.111,0.545,1.758C889.809,269.382,889.553,270.015,889.041,270.527z
			 M861.035,260.1c-1.268,0-2.493,0.323-3.678,0.97c-1.187,0.646-2.236,1.495-3.152,2.546s-1.645,2.229-2.183,3.536
			c-0.539,1.308-0.808,2.621-0.808,3.94c0,0.539,0.033,1.099,0.101,1.677c0.067,0.58,0.222,1.112,0.464,1.597
			c0.243,0.485,0.587,0.89,1.031,1.213s1.044,0.484,1.799,0.484c0.592,0,1.285-0.263,2.08-0.788s1.617-1.198,2.466-2.021
			c0.849-0.821,1.677-1.724,2.485-2.708c0.809-0.982,1.535-1.945,2.183-2.889c0.646-0.943,1.172-1.792,1.575-2.547
			c0.404-0.754,0.607-1.306,0.607-1.656c0-0.512-0.176-0.977-0.525-1.395c-0.352-0.417-0.782-0.774-1.293-1.071
			c-0.513-0.296-1.059-0.518-1.637-0.666C861.971,260.175,861.465,260.1,861.035,260.1z"/>
	</g>
	<text transform="matrix(1 0 0 1 564.8635 319.1208)" fill="#FFFFFF" font-family="'Futura-Medium'" font-size="17.6284">I am a UX / UI  Designer.</text>
</g>
<polyline fill="none" stroke="#FFFFFF" stroke-width="2.1259" stroke-miterlimit="10" points="498.697,467.838 480,486.533 
	461.303,467.838 "/>
<polyline fill="none" stroke="#FFFFFF" stroke-width="2.1259" stroke-miterlimit="10" points="498.697,475.838 480,494.533 
	461.303,475.838 "/>
<text transform="matrix(1 0 0 1 454.405 454.5984)" fill="#FFFFFF" font-family="'Futura-Medium'" font-size="17.6284">schroll</text>
</svg>
