<?xml version="1.0" encoding="utf-8"?>
<!-- Generator: Adobe Illustrator 16.0.0, SVG Export Plug-In . SVG Version: 6.00 Build 0)  -->
<!DOCTYPE svg PUBLIC "-//W3C//DTD SVG 1.1//EN" "http://www.w3.org/Graphics/SVG/1.1/DTD/svg11.dtd">
<svg version="1.1" id="レイヤー_1" xmlns="http://www.w3.org/2000/svg" xmlns:xlink="http://www.w3.org/1999/xlink" x="0px"
	 y="0px" width="330px" height="330px" viewBox="0 0 330 330" enable-background="new 0 0 330 330" xml:space="preserve">
<circle fill="#E27868" cx="165" cy="163" r="163"/>
<path fill="#FFFFFF" d="M257.959,196.687c-0.004-0.098-0.017-0.187-0.025-0.279c0.005-0.093,0.025-0.175,0.025-0.27
	c0.027-22.001,1.138-44.06-1.511-65.981c-0.209-1.729-1.345-2.89-2.745-3.48c-3.487-3.754-10.631-2.029-15.451-2.169
	c-6.954-0.201-13.979,0.764-20.901,1.227c-5.755,0.385-13.431,1.468-18.929-0.682c-1.703-0.666-1.635-1.715-1.863-3.673
	c-0.375-3.218-0.312-6.486-0.312-9.716c-0.002-7.126-0.777-14.291-1.8-21.352c-0.639-4.391-1.533-8.726-3.017-12.948
	c-0.522-1.488-1.858-2.397-3.565-2.472c-12.279-0.527-24.521-1.482-36.827-1.205c-6.282,0.141-12.609,0.64-18.75,1.88
	c-4.464,0.902-9.729,2.418-12.859,5.624c-6.55,6.708-5.456,18.361-4.868,26.599c0.609,8.536,2.452,17.06,2.935,25.61
	c-14.133-0.291-28.41-1.635-42.28,1.518c-1.525,0.347-2.802,1.789-2.713,3.245c0.219,3.633,0.468,7.265,0.729,10.898
	c0.442,21.929,1.954,43.834,1.991,65.771c0.001,0.574,0.112,1.081,0.301,1.531v21.287c0,5.316,9.062,5.316,9.062,0v-26.667
	c0-0.624-0.138-1.165-0.36-1.643c-0.279-22.961-1.913-45.894-2.036-68.857c12.867-1.909,26.153-0.352,39.121-0.302
	c2.004,0.008,3.713-1.537,3.698-3.366c-0.074-8.592-1.939-17.192-2.771-25.74c-0.736-7.567-2.444-18.243,2.358-25.032
	c1.914-2.704,7.358-3.522,10.492-4.154c5.876-1.187,11.979-1.411,17.976-1.512c10.68-0.182,21.324,0.599,31.979,1.113
	c2.336,8.026,2.703,16.982,3.668,24.359c0.731,5.572-0.158,11.248,0.624,16.841c0.766,5.455,3.72,8.329,9.678,9.462
	c6.864,1.307,14.198,0.619,21.116,0.12c6.584-0.476,13.311-1.387,19.925-0.95c1.391,0.091,5.642-0.824,7.413-0.478
	c0.823,7.028,1.267,14.069,1.488,21.118c-0.099,1.276-0.2,2.55-0.289,3.821c-0.324,4.545-0.095,9.154,0.24,13.759
	c-0.383,0.576-0.61,1.283-0.61,2.126v21.924c-0.059,0.355-0.062,0.744,0,1.169v1.649c0,0.655,0.139,1.231,0.381,1.726
	c0.149,1.693,0.226,3.386,0.245,5.078c-0.073,3.091-0.252,6.179-0.481,9.266c-0.046,0.416-0.092,0.832-0.145,1.25
	c-0.041,0.312-0.044,0.601-0.019,0.875c-0.617,7.674-1.435,15.344-1.491,23.045c-0.038,5.319,9.023,5.314,9.062,0
	c0.062-8.416,1.03-16.793,1.655-25.181c0.351-3.125,0.524-6.249,0.483-9.372C258.032,200.963,258.033,198.825,257.959,196.687z"/>
<path fill="#FFFFFF" d="M161.451,89.986c-11.204-3.069-21.704,1.947-25.884,11.639c-3.614,8.379-1.443,19.239,5.712,25.528
	c3.024,2.659,6.902,4.178,10.981,4.72c0.575,0.495,1.348,0.837,2.326,0.904c12.558,0.844,22.066-7.276,23.41-18.434
	C179.275,103.718,172.988,93.146,161.451,89.986z M158.242,125.968c-0.559-0.378-1.284-0.606-2.178-0.596
	c-8.706,0.098-14.063-6.026-14.692-13.58c-0.586-7.05,2.968-14.487,11.193-15.864C173.089,92.495,177.363,123.761,158.242,125.968z"
	/>
<path fill="#FFFFFF" d="M160.854,106.985c-0.653,0.371-1.315,0.707-1.979,1.03c-0.121-1.923-0.337-3.84-0.724-5.75
	c-0.865-4.264-7.992-2.453-7.131,1.789c0.658,3.246,0.606,6.585,0.607,9.875c0.001,3.025,3.979,4.338,6.312,2.38
	c1.898-1.594,4.478-2.279,6.647-3.512C168.62,110.503,164.91,104.678,160.854,106.985z"/>
<path fill="#FFFFFF" d="M198.942,209.097c-0.825-5.263-6.867-5.259-11.424-5.838c-17.537-2.226-37.024-0.753-53.733,4.713
	c-1.994,0.651-3.012,2.233-2.583,4.14c1.988,8.814,2.085,17.74,2.086,26.701c0,4.341,7.396,4.342,7.396,0
	c-0.002-8.505-0.183-16.955-1.711-25.334c6.495-1.875,13.303-3.107,20.18-3.787c-0.401,8.316,2.832,16.208,3.717,24.41
	c0.461,4.277,7.861,4.319,7.394,0c-0.898-8.338-4.252-16.466-3.696-24.906c0-0.006,0-0.014,0-0.021
	c5.073-0.212,10.138-0.14,15.1,0.195c2.916,0.197,5.824,0.599,8.718,0.972c0.212,0.027,0.904,0.168,1.359,0.245
	c0.021,0.088,0.044,0.182,0.067,0.299c1.496,7.687,0.702,15.471,0.639,23.216c-0.035,4.341,7.36,4.34,7.396,0
	C199.915,225.66,200.26,217.482,198.942,209.097z"/>
<path fill="#FFFFFF" d="M176.182,219.967c-4.769,0-4.769,6.73,0,6.73S180.95,219.967,176.182,219.967z"/>
<path fill="#FFFFFF" d="M152.517,220.639c-4.769,0-4.769,6.731,0,6.731S157.286,220.639,152.517,220.639z"/>
<path fill="#FFFFFF" d="M120.736,151.4c-0.379-1.78-2.726-2.835-4.548-2.35c-4.479,1.192-9.208,0.595-13.808,0.553
	c-0.462-0.004-0.878,0.056-1.251,0.167c-1.831,0.011-3.495,1.069-3.186,3.198c0.682,4.696,0.738,9.407,0.74,14.135
	c0,1.832,1.681,3.37,3.697,3.365c5.499-0.011,12.018,0.21,16.388-3.341C123.404,163.359,121.752,156.165,120.736,151.4z
	 M113.539,162.368c-1.313,1.235-4.582,1.425-7.479,1.418c-0.031-2.465-0.113-4.924-0.327-7.38c2.841,0.078,5.679,0.151,8.484-0.151
	C114.61,158.63,114.753,161.226,113.539,162.368z"/>
<path fill="#FFFFFF" d="M157.713,150.727c-0.38-1.78-2.726-2.834-4.548-2.35c-4.479,1.192-9.208,0.595-13.807,0.553
	c-0.462-0.004-0.878,0.056-1.251,0.167c-1.832,0.011-3.495,1.069-3.186,3.196c0.682,4.696,0.738,9.408,0.74,14.137
	c0.001,1.831,1.681,3.37,3.697,3.366c5.499-0.013,12.018,0.209,16.388-3.344C160.382,162.687,158.73,155.491,157.713,150.727z
	 M150.516,161.695c-1.312,1.234-4.582,1.423-7.479,1.417c-0.03-2.463-0.112-4.924-0.327-7.379c2.842,0.078,5.679,0.151,8.484-0.152
	C151.587,157.957,151.73,160.553,150.516,161.695z"/>
<path fill="#FFFFFF" d="M194.694,150.727c-0.381-1.78-2.728-2.834-4.55-2.35c-4.477,1.192-9.208,0.595-13.808,0.553
	c-0.462-0.004-0.88,0.056-1.252,0.167c-1.83,0.011-3.496,1.069-3.186,3.196c0.682,4.696,0.738,9.408,0.739,14.137
	c0,1.831,1.682,3.37,3.698,3.366c5.497-0.013,12.018,0.209,16.388-3.344C197.361,162.687,195.709,155.491,194.694,150.727z
	 M187.497,161.695c-1.314,1.234-4.583,1.423-7.48,1.417c-0.031-2.463-0.112-4.924-0.328-7.379c2.842,0.078,5.681,0.151,8.485-0.152
	C188.566,157.957,188.71,160.553,187.497,161.695z"/>
<path fill="#FFFFFF" d="M231.673,150.727c-0.38-1.78-2.727-2.834-4.549-2.35c-4.479,1.192-9.209,0.595-13.808,0.553
	c-0.461-0.004-0.878,0.056-1.252,0.167c-1.831,0.011-3.494,1.069-3.186,3.196c0.681,4.696,0.737,9.408,0.738,14.137
	c0.001,1.831,1.683,3.37,3.699,3.366c5.498-0.013,12.018,0.209,16.389-3.344C234.341,162.687,232.689,155.491,231.673,150.727z
	 M224.475,161.695c-1.313,1.234-4.58,1.423-7.479,1.417c-0.031-2.463-0.113-4.924-0.326-7.379c2.841,0.078,5.679,0.151,8.484-0.152
	C225.546,157.957,225.689,160.553,224.475,161.695z"/>
<path fill="#FFFFFF" d="M120.736,176.146c-0.379-1.781-2.726-2.837-4.548-2.352c-4.479,1.193-9.208,0.594-13.808,0.553
	c-0.462-0.004-0.878,0.057-1.251,0.168c-1.831,0.01-3.495,1.068-3.186,3.199c0.682,4.695,0.738,9.406,0.74,14.135
	c0,1.831,1.681,3.37,3.697,3.365c5.499-0.012,12.018,0.209,16.388-3.342C123.404,188.105,121.752,180.91,120.736,176.146z
	 M113.539,187.112c-1.313,1.235-4.582,1.425-7.479,1.419c-0.031-2.465-0.113-4.924-0.327-7.38c2.841,0.077,5.679,0.151,8.484-0.151
	C114.61,183.374,114.753,185.972,113.539,187.112z"/>
<path fill="#FFFFFF" d="M157.713,175.472c-0.38-1.78-2.726-2.835-4.548-2.351c-4.479,1.192-9.208,0.594-13.807,0.553
	c-0.462-0.003-0.878,0.058-1.251,0.168c-1.832,0.011-3.495,1.068-3.186,3.196c0.682,4.696,0.738,9.408,0.74,14.137
	c0.001,1.832,1.681,3.371,3.697,3.366c5.499-0.012,12.018,0.209,16.388-3.343C160.382,187.432,158.73,180.235,157.713,175.472z
	 M150.516,186.439c-1.312,1.235-4.582,1.424-7.479,1.419c-0.03-2.465-0.112-4.925-0.327-7.38c2.842,0.077,5.679,0.15,8.484-0.152
	C151.587,182.702,151.73,185.298,150.516,186.439z"/>
<path fill="#FFFFFF" d="M194.694,175.472c-0.381-1.78-2.728-2.835-4.55-2.351c-4.477,1.192-9.208,0.594-13.808,0.553
	c-0.462-0.003-0.88,0.058-1.252,0.168c-1.83,0.011-3.496,1.068-3.186,3.196c0.682,4.696,0.738,9.408,0.739,14.137
	c0,1.832,1.682,3.371,3.698,3.366c5.497-0.012,12.018,0.209,16.388-3.343C197.361,187.432,195.709,180.235,194.694,175.472z
	 M187.497,186.439c-1.314,1.235-4.583,1.424-7.48,1.419c-0.031-2.465-0.112-4.925-0.328-7.38c2.842,0.077,5.681,0.15,8.485-0.152
	C188.566,182.702,188.71,185.298,187.497,186.439z"/>
</svg>
